<svg version="1.2" baseProfile="tiny-ps" xmlns="http://www.w3.org/2000/svg" viewBox="0 0 516 97" width="516" height="97">
	<title>New Project</title>
	<style>
		tspan { white-space:pre }
	</style>
	<path id="Daniel Dev " fill="#333333" aria-label="Daniel Dev"  d="M14.65 74.63L15.66 77.22C22.06 75.62 28.15 72.08 31.94 66.67C33.15 64.94 34.08 63.01 34.59 60.97C35.11 58.92 35.18 56.79 35.18 54.68L35.18 43.67L35.19 35.24C35.19 32.94 35.3 30.59 36.21 28.48C37.1 26.41 38.7 24.76 40.37 23.26L43.87 23.26C42.33 24.92 41.13 26.9 40.35 29.02C39.13 32.37 39.03 35.86 39.02 39.13L39.02 47.55L39.02 58.57C39.02 60.56 38.88 62.46 38.29 64.12C37.68 65.81 36.63 67.41 35.4 68.92C33.73 70.98 31.84 72.92 29.9 74.84C20.44 77.8 12.24 84.62 7.62 93.4L10.7 93.4C16.73 87.89 24.94 84.83 33.11 85.03C39.48 85.19 45.8 87.31 50.98 91.03L77.98 76.18C79.79 72.5 81.28 68.66 82.41 64.73C84.49 57.52 85.42 49.97 85 42.48C84.57 34.69 82.64 26.79 78.09 20.45C75.46 16.78 71.89 13.76 67.72 12.04C63.55 10.33 58.95 10.08 54.44 10.08L24.95 10.08C24.1 10.08 23.25 10.07 22.41 9.95C21.57 9.83 20.74 9.59 19.99 9.19C19.24 8.79 18.57 8.23 18.05 7.55C17.54 6.88 17.18 6.08 17.02 5.25L14.69 5.16C13.99 7.85 13.58 10.62 13.65 13.39C13.68 14.78 13.83 16.16 14.2 17.5C14.57 18.84 15.16 20.13 16.07 21.18C16.73 21.93 17.56 22.53 18.5 22.87C19.43 23.21 20.45 23.26 21.44 23.26L36.49 23.26L27.95 28.82C25.98 30.1 24 31.47 22.75 33.46C22.13 34.45 21.7 35.56 21.48 36.71C21.26 37.86 21.24 39.04 21.24 40.21L21.24 42.92C19.12 43.24 17.01 43.62 15.07 44.53C13.56 45.24 12.19 46.28 11.15 47.59C10.11 48.9 9.39 50.45 9.02 52.09C8.34 55.13 8.86 58.42 10.38 61.15L12.44 61.15C12.3 60.37 12.32 59.57 12.51 58.81C12.83 57.52 13.65 56.36 14.79 55.68C15.36 55.35 16 55.13 16.65 55.02C17.3 54.91 17.97 54.9 18.63 54.9C19.5 54.9 20.37 54.9 21.25 54.9C21.25 55 21.25 55.09 21.25 55.19C21.25 58.04 21.31 60.89 20.98 63.72C20.65 66.55 19.81 69.38 18.07 71.64C17.14 72.85 15.97 73.87 14.65 74.63ZM50.79 74.43C50.79 69.73 50.79 65.03 50.79 60.33L70.44 50.36C70.42 54.83 69.98 59.3 69.24 63.7C68.24 69.63 66.61 75.46 64.37 81.04C60.36 77.93 55.7 75.71 50.79 74.43ZM50.79 23.26C53.24 23.28 55.71 23.44 58.01 24.24C60.53 25.12 62.78 26.7 64.54 28.71C66.4 30.84 67.71 33.41 68.61 36.09L50.79 45.1C50.79 37.82 50.79 30.54 50.79 23.26ZM47.69 73.76C43.62 73.05 39.43 72.98 35.34 73.59C36.16 72.7 36.97 71.78 37.75 70.83C39.1 69.17 40.36 67.3 41.13 65.14C41.92 62.94 42.04 60.68 42.04 58.57L42.04 47.56L42.05 39.13C42.05 35.92 42.19 32.81 43.19 30.06C44.09 27.62 45.66 25.42 47.69 23.85C47.69 40.48 47.69 57.12 47.69 73.76ZM50.79 48.57L69.44 39.14C69.91 41.3 70.18 43.51 70.32 45.72C70.34 46.12 70.36 46.52 70.38 46.92L50.79 56.86ZM138.09 78.12L133.43 81.22L128.26 76.04L128.26 48.81L133.89 44.24L131.99 41.89L127.63 45.42L111.69 35.15L99.78 41.36C98.52 42.02 97.27 42.72 96.2 43.66C95.2 44.53 94.35 45.59 93.79 46.8C93.23 48 92.96 49.35 93.05 50.68C93.15 52.11 93.66 53.51 94.43 54.72C95.9 57.02 98.24 58.64 100.7 59.81C101.23 60.06 101.77 60.29 102.31 60.51C99.78 61.83 97.37 63.41 95.23 65.3C93.7 66.64 92.31 68.16 91.25 69.91C90.2 71.65 89.52 73.63 89.4 75.67C89.21 78.8 90.41 81.93 92.4 84.35C95.24 87.79 99.5 89.96 103.92 90.54L115.32 82.25L123.57 90.52L138.6 80.19ZM114.8 61.33C112.84 60.86 110.9 60.33 108.98 59.73C106.93 59.09 104.89 58.38 102.95 57.46C101.01 56.53 99.12 55.38 97.77 53.71C96.83 52.56 96.19 51.13 96.16 49.64C96.14 48.57 96.43 47.5 96.96 46.57C97.48 45.64 98.22 44.84 99.08 44.19C99.77 43.67 100.53 43.24 101.34 42.91L114.8 51.19C114.8 54.57 114.8 57.95 114.8 61.33ZM114.8 64.45C114.8 69.93 114.8 75.41 114.8 80.89C113.64 81.25 112.39 81.33 111.19 81.11C109.66 80.82 108.24 80.06 107.07 79.03C105.9 78.01 104.97 76.73 104.25 75.35C102.71 72.43 101.99 69.03 102.52 65.77C102.78 64.16 103.35 62.61 104.2 61.22C105.59 61.7 107 62.12 108.41 62.54C110.54 63.18 112.67 63.8 114.8 64.45ZM194.36 77.6L190.22 80.7L185.56 76.56L185.56 48.34L190.79 44.1L188.89 41.75L184.33 45.44L172.1 34.93L160.23 44.21L151.91 34.93L136.9 45.28L138.45 47.35L142.59 44.77L146.73 49.43L146.73 78.11L142.59 81.74L155.02 91.58L165.37 82.26L160.71 78.11L160.71 48.46L165.37 44.77L173.14 51.5L173.14 78.11L169.51 81.74L180.38 91.58L196.43 80.7ZM227.47 77.6L222.81 80.7L219.18 77.08L219.18 44.46L210.9 34.63L196.4 44.46L197.96 46.53L202.1 43.95L205.72 48.61L205.72 77.08L198.99 81.74L200.55 83.81L204.17 81.22L214.52 90.54L230.05 79.67ZM202.26 20.06L211.47 30.54L221.79 21.48L212.58 11ZM231.9 83.03L236.68 79.16L252.7 91.06L274.96 72.94L273.41 70.35L261.5 79.67L248.56 70.87L248.56 66.21L271.86 51.71L271.86 51.19L260.98 34.63L235.1 48.09L235.1 76.54L229.99 80.68ZM248.56 63.57L248.56 44.08L250.63 42.91L259.95 56.37ZM296.66 77.08L296.66 7.19L294.59 7.19L276.99 19.61L276.99 21.17C277.85 21.43 278.69 21.76 279.48 22.18C280.22 22.58 280.92 23.09 281.4 23.78C281.71 24.22 281.93 24.72 282.05 25.25C282.16 25.78 282.17 26.32 282.17 26.86L282.17 76.04L274.92 80.7L276.47 82.77L280.61 80.19L292 90.02L305.46 80.7L303.91 78.63L300.81 81.22ZM331.85 74.63L332.85 77.22C339.26 75.62 345.35 72.08 349.13 66.67C350.34 64.94 351.27 63.01 351.79 60.97C352.31 58.92 352.37 56.79 352.37 54.68L352.38 43.67L352.38 35.24C352.38 32.94 352.5 30.59 353.41 28.48C354.3 26.41 355.9 24.76 357.57 23.26L361.07 23.26C359.53 24.92 358.33 26.9 357.55 29.02C356.33 32.37 356.22 35.86 356.22 39.13L356.21 47.55L356.21 58.57C356.21 60.56 356.08 62.46 355.48 64.12C354.88 65.81 353.83 67.41 352.6 68.92C350.92 70.98 349.04 72.92 347.1 74.84C337.63 77.8 329.43 84.62 324.82 93.4L327.89 93.4C333.93 87.89 342.13 84.83 350.3 85.03C356.68 85.19 363 87.31 368.18 91.03L395.18 76.18C396.99 72.5 398.47 68.66 399.61 64.73C401.68 57.52 402.62 49.97 402.2 42.48C401.76 34.69 399.83 26.79 395.29 20.45C392.66 16.78 389.09 13.76 384.92 12.04C380.75 10.33 376.14 10.08 371.63 10.08L342.15 10.08C341.3 10.08 340.45 10.07 339.6 9.95C338.76 9.83 337.93 9.59 337.18 9.19C336.43 8.79 335.76 8.23 335.25 7.55C334.73 6.88 334.37 6.08 334.21 5.25L331.89 5.16C331.18 7.85 330.78 10.62 330.84 13.39C330.87 14.78 331.03 16.16 331.4 17.5C331.76 18.84 332.35 20.13 333.27 21.18C333.92 21.93 334.76 22.53 335.69 22.87C336.63 23.21 337.64 23.26 338.64 23.26L353.69 23.26L345.14 28.82C343.18 30.1 341.19 31.47 339.95 33.46C339.32 34.45 338.9 35.56 338.68 36.71C338.45 37.86 338.44 39.04 338.44 40.21L338.44 42.92C336.32 43.24 334.2 43.62 332.27 44.53C330.75 45.24 329.39 46.28 328.35 47.59C327.31 48.9 326.59 50.45 326.22 52.09C325.53 55.13 326.05 58.42 327.57 61.15L329.64 61.15C329.5 60.37 329.52 59.57 329.71 58.81C330.03 57.52 330.85 56.36 331.99 55.68C332.56 55.35 333.19 55.13 333.85 55.02C334.5 54.91 335.16 54.9 335.82 54.9C336.7 54.9 337.57 54.9 338.44 54.9C338.44 55 338.44 55.09 338.44 55.19C338.44 58.04 338.51 60.89 338.18 63.72C337.84 66.55 337 69.38 335.27 71.64C334.34 72.85 333.17 73.87 331.85 74.63ZM367.99 74.43C367.99 69.73 367.99 65.03 367.99 60.33L387.64 50.36C387.62 54.83 387.17 59.3 386.43 63.7C385.44 69.63 383.81 75.46 381.57 81.04C377.55 77.93 372.9 75.71 367.99 74.43ZM367.98 23.26C370.43 23.28 372.9 23.44 375.21 24.24C377.73 25.12 379.98 26.7 381.73 28.71C383.59 30.84 384.91 33.41 385.8 36.09L367.99 45.1C367.99 37.82 367.98 30.54 367.98 23.26ZM364.89 73.76C360.81 73.05 356.62 72.98 352.53 73.59C353.36 72.7 354.17 71.78 354.94 70.83C356.29 69.17 357.56 67.3 358.33 65.14C359.12 62.94 359.24 60.68 359.24 58.57L359.24 47.56L359.24 39.13C359.25 35.92 359.39 32.81 360.39 30.06C361.28 27.62 362.86 25.42 364.89 23.85C364.89 40.48 364.89 57.12 364.89 73.76ZM367.99 48.57L386.63 39.14C387.11 41.3 387.37 43.51 387.51 45.72C387.54 46.12 387.56 46.52 387.58 46.92L367.99 56.86ZM407.4 83.03L412.18 79.16L428.2 91.06L450.46 72.94L448.91 70.35L437 79.67L424.06 70.87L424.06 66.21L447.36 51.71L447.36 51.19L436.48 34.63L410.6 48.09L410.6 76.54L405.49 80.68ZM424.06 63.57L424.06 44.08L426.13 42.91L435.45 56.37ZM457.15 85.33L460.52 82.6L475.11 91.53L499.88 76.76L499.9 47.44L503.91 44.18L492.95 34.57L481.64 43.94L486.42 48.28L486.42 81.15L483.3 82.96L473.56 76.76L473.58 54.09C473.59 51.62 473.62 49.11 473.07 46.7C472.51 44.29 471.25 42.04 469.42 40.37C468.34 39.39 467.1 38.59 465.87 37.8C464.64 37 463.4 36.18 462.41 35.1C461.42 34.02 460.7 32.65 460.6 31.19C460.5 29.73 461.05 28.24 462.07 27.18C462.84 26.37 463.83 25.8 464.88 25.44C465.01 25.39 465.14 25.35 465.27 25.31L464.75 23.26C462.28 23.48 459.85 24.2 457.67 25.39C455.5 26.57 453.56 28.23 452.2 30.31C451.1 32.01 450.41 34 450.42 36.03C450.43 38.05 451.18 40.04 452.37 41.67C453.55 43.28 455.12 44.57 456.51 46C457.9 47.44 459.06 49.14 459.61 51.07C459.95 52.29 460.07 53.58 460.1 54.85C460.13 56.13 460.1 57.4 460.1 58.68L460.1 79.04L455.24 82.98Z" />
</svg>