<?xml version="1.0" encoding="utf-8"?>
<!-- Generator: Adobe Illustrator 19.0.0, SVG Export Plug-In . SVG Version: 6.00 Build 0)  -->
<svg version="1.1" xmlns="http://www.w3.org/2000/svg" xmlns:xlink="http://www.w3.org/1999/xlink" x="0px" y="0px"
	 viewBox="0 0 292.8 291.3" style="enable-background:new 0 0 292.8 291.3;" xml:space="preserve">
<style type="text/css">
	.st0{fill:#D8D8D8;}
	.st1{fill:#FFFFFF;}
	.st2{stroke:#000000;stroke-miterlimit:10;}
	.st3{stroke:#EF1186;stroke-miterlimit:10;}
	.st4{fill:#339933;}
	.st5{fill:#6CAC48;}
	.st6{fill:#C2BFBF;}
</style>
<g id="Layer_1">
	<g id="XMLID_1_">
		
			<image style="overflow:visible;opacity:0.3;" width="321" height="321" id="XMLID_117_" xlink:href="D48C7018.png"  transform="matrix(1 0 0 1 -12.5 -12.75)">
		</image>
		<g id="XMLID_110_">
			<path id="XMLID_116_" class="st0" d="M239.6,291c-30.9,0-61.7-2.1-92.6-2.1c-31.3,0-62.6,2.1-93.8,2.1c-3.4,0-21.8-0.3-36.6-15.2
				c-9.4-9.4-15.2-22.3-15.2-36.6c0-31.1,2.1-62.3,2.1-93.4c0-31-2.1-62-2.1-93c0-3.4,0.3-21.8,15.2-36.6C25.9,6.7,38.9,1,53.2,1
				c30.4,0,60.8,2,91.3,2c31.7,0,63.5-2,95.2-2c32.2,0,51.8,22.9,51.8,51.8c0,30.8-2.1,61.5-2.1,92.3c0,31.4,2.1,62.7,2.1,94.1
				c0,3.4-0.3,21.8-15.2,36.6C266.9,285.2,253.9,291,239.6,291z"/>
		</g>
	</g>
</g>
<g id="Layer_2">
	<path id="XMLID_2_" class="st1" d="M104.6,141.8h-50c-20.7,0-37.5-16.8-37.5-37.5v-50c0-20.7,16.8-37.5,37.5-37.5h50
		c20.7,0,37.5,16.8,37.5,37.5v50C142.1,125,125.3,141.8,104.6,141.8z"/>
	<path id="XMLID_3_" class="st1" d="M238,275.1h-50c-20.7,0-37.5-16.8-37.5-37.5v-50c0-20.7,16.8-37.5,37.5-37.5h50
		c20.7,0,37.5,16.8,37.5,37.5v50C275.5,258.3,258.7,275.1,238,275.1z"/>
	<path id="XMLID_4_" class="st1" d="M104.2,275.6h-50c-20.7,0-37.5-16.8-37.5-37.5v-50c0-20.7,16.8-37.5,37.5-37.5h50
		c20.7,0,37.5,16.8,37.5,37.5v50C141.7,258.8,124.9,275.6,104.2,275.6z"/>
	<path id="XMLID_10_" class="st2" d="M282.5,73.8"/>
	<path id="XMLID_6_" class="st2" d="M272.5,73.8"/>
	<path id="XMLID_9_" class="st2" d="M211,3.3"/>
	<path id="XMLID_8_" class="st2" d="M211,13.3"/>
	<path id="XMLID_7_" class="st1" d="M238.7,141.3h-50c-20.7,0-37.5-16.8-37.5-37.5v-50c0-20.7,16.8-37.5,37.5-37.5h50
		c20.7,0,37.5,16.8,37.5,37.5v50C276.2,124.5,259.4,141.3,238.7,141.3z"/>
	<path id="XMLID_18_" class="st3" d="M64,1.3"/>
	<path id="XMLID_20_" class="st3" d="M1.5,57.8"/>
	<path id="XMLID_19_" class="st3" d="M16.5,57.8"/>
</g>
<g id="Layer_3">
	<path id="XMLID_13_" class="st4" d="M81,125.2c-1.4,0-2.7-0.3-3.9-0.9l-12.4-6.5c-1.9-0.9-0.9-1.2-0.3-1.4c2.5-0.8,3-0.9,5.6-2.3
		c0.3-0.1,0.6-0.1,0.9,0.1l9.5,5c0.3,0.2,0.8,0.2,1.2,0l37.2-19c0.3-0.2,0.6-0.5,0.6-0.9V61.2c0-0.4-0.2-0.7-0.6-0.9l-37.2-19
		c-0.3-0.2-0.8-0.2-1.1,0l-37.2,19c-0.4,0.2-0.6,0.5-0.6,0.9v38.1c0,0.4,0.2,0.7,0.6,0.9l10.2,5.2c5.5,2.5,8.9-0.4,8.9-3.3V64.5
		c0-0.5,0.5-0.9,1.1-0.9h4.7c0.6,0,1.1,0.4,1.1,0.9V102c0,6.5-4,10.3-11,10.3c-2.1,0-3.8,0-8.6-2.1l-9.8-5c-2.4-1.2-3.9-3.5-3.9-6
		V61.2c0-2.5,1.5-4.8,3.9-6l37.2-19.1c2.4-1.2,5.5-1.2,7.8,0l37.2,19.1c2.4,1.2,3.9,3.5,3.9,6v38.1c0,2.5-1.5,4.8-3.9,6l-37.2,19
		C83.7,124.9,82.4,125.2,81,125.2z M111,87.7c0-7.1-5.4-9-16.9-10.4c-11.5-1.4-12.7-2.1-12.7-4.5c0-2,1-4.6,9.5-4.6
		c7.6,0,10.5,1.5,11.6,6c0.1,0.4,0.5,0.7,1,0.7h4.8c0.3,0,0.6-0.1,0.8-0.3c0.2-0.2,0.3-0.5,0.3-0.7c-0.7-7.9-6.6-11.5-18.6-11.5
		c-10.6,0-16.9,4-16.9,10.6c0,7.2,6.3,9.2,16.5,10.1c12.2,1.1,13.1,2.6,13.1,4.8c0,3.7-3.3,5.3-11.2,5.3c-9.8,0-12-2.2-12.7-6.5
		c-0.1-0.5-0.5-0.8-1.1-0.8h-4.8c-0.6,0-1.1,0.4-1.1,0.9c0,5.6,3.4,12.2,19.7,12.2C104.3,99,111,94.9,111,87.7z"/>
	<path id="XMLID_16_" class="st5" d="M214.3,170l1.8,4.5c0.4,0.8,0.8,1.6,1.3,2.3c1.5,2,2.9,4.1,4.2,6.4c3,5.3,5.1,11.3,6.5,17.7
		c0.9,3.9,1.3,7.9,1.4,12c0.1,12.2-2.9,22.6-9.2,31.3c-1,1.4-2.1,2.6-3.3,3.8c-0.6,0-0.9-0.6-1.2-1.2c-0.5-1.1-0.8-2.3-0.9-3.5
		c-0.2-1.5-0.4-2.9-0.3-4.5V238C214.6,237.8,214.1,170.3,214.3,170z"/>
	<path id="XMLID_15_" class="st5" d="M214.3,169.8c-0.1-0.2-0.1,0-0.2,0c0,1-0.2,1.9-0.6,2.7c-0.4,0.8-1,1.5-1.6,2.2
		c-3.2,3.8-5.8,8.3-7.8,13.4c-2.7,6.9-4.1,14.2-4.5,22c-0.2,2.8,0.7,12.6,1.3,15.5c1.8,7.5,5,13.9,9.1,19.4c1,1.3,2.1,2.5,3.2,3.7
		c0.3,0,0.4-0.4,0.4-0.7c0.1-0.6,0.3-1.3,0.3-1.9l0.7-7.4L214.3,169.8z"/>
	<path id="XMLID_14_" class="st6" d="M216.1,250.9c0.1-1.1,0.5-2.1,0.9-3c-0.4-0.2-0.8-0.7-1-1.3c-0.2-0.5-0.4-1.1-0.5-1.6
		c-0.5-2.1-0.6-4.2-0.8-6.3v-1.3c-0.2,0.2-0.2,1.9-0.2,2.1c-0.1,2.2-0.3,4.4-0.7,6.6c-0.1,0.9-0.2,1.8-0.6,2.5c0,0.1,0,0.2,0,0.3
		c0.7,2.6,0.8,5.2,0.9,7.9v1c0,1.2,0,0.9,0.7,1.3c0.3,0.1,0.6,0.2,0.9,0.5c0.2,0,0.3-0.2,0.3-0.4l-0.1-1.6v-4.5
		C215.9,252.4,216,251.6,216.1,250.9L216.1,250.9z"/>
	<path id="XMLID_34_" d="M77.1,168.5c-0.2,0-0.8,0.1-1.4,0.1c-12.8,1.2-24.8,8-32.3,18.6c-4.2,5.9-6.9,12.6-7.9,19.7
		c-0.4,2.5-0.4,3.2-0.4,6.6s0,4.1,0.4,6.6c2.4,16.9,14.5,31.1,30.8,36.4c2.9,0.9,6,1.6,9.5,2c1.4,0.1,7.3,0.1,8.6,0
		c6-0.7,11.2-2.2,16.2-4.7c0.8-0.4,0.9-0.5,0.8-0.6c-0.1-0.1-3.4-4.5-7.3-9.8l-7.2-9.7l-9-13.3c-5-7.3-9-13.3-9.1-13.3
		c0,0-0.1,5.9-0.1,13.2c0,12.7,0,13.2-0.2,13.5c-0.2,0.4-0.4,0.6-0.8,0.8c-0.3,0.1-0.5,0.2-1.9,0.2h-1.5l-0.4-0.3
		c-0.3-0.2-0.5-0.4-0.6-0.6l-0.2-0.4l0-17.6l0-17.6l0.3-0.3c0.1-0.2,0.4-0.4,0.7-0.5c0.4-0.2,0.5-0.2,2-0.2c1.8,0,2.1,0.1,2.6,0.6
		c0.1,0.1,5,7.5,10.9,16.4c5.8,8.9,13.8,21,17.8,26.9l7.1,10.8l0.4-0.2c3.2-2.1,6.6-5,9.2-8.1c5.7-6.5,9.4-14.5,10.6-23
		c0.4-2.5,0.4-3.2,0.4-6.6s0-4.1-0.4-6.6c-2.4-16.9-14.5-31.1-30.8-36.4c-2.9-0.9-5.9-1.6-9.4-2C83.6,168.5,77.8,168.4,77.1,168.5
		L77.1,168.5z M95.5,195.7c0.4,0.2,0.8,0.6,0.9,1c0.1,0.2,0.1,5.1,0.1,16.1l0,15.8l-2.8-4.3l-2.8-4.3v-11.5c0-7.4,0-11.6,0.1-11.8
		c0.1-0.5,0.4-0.9,0.9-1.1c0.4-0.2,0.5-0.2,1.9-0.2C95,195.5,95.2,195.5,95.5,195.7L95.5,195.7z"/>
	<path id="XMLID_27_" d="M104,251.5c-0.3,0.2-0.4,0.3-0.1,0.2c0.2-0.1,0.5-0.4,0.5-0.4C104.3,251.4,104.1,251.4,104,251.5z
		 M103.3,251.9C103.2,252.1,103.2,252.1,103.3,251.9c0.1,0,0.2-0.1,0.2-0.1C103.6,251.8,103.5,251.8,103.3,251.9L103.3,251.9z
		 M102.9,252.2C102.8,252.3,102.8,252.3,102.9,252.2c0.1,0,0.2-0.1,0.2-0.1C103.1,252,103.1,252,102.9,252.2L102.9,252.2z
		 M102.5,252.5C102.3,252.6,102.3,252.6,102.5,252.5c0.1,0,0.2-0.1,0.2-0.1C102.7,252.3,102.7,252.3,102.5,252.5L102.5,252.5z
		 M101.8,252.8C101.5,253,101.5,253.1,101.8,252.8c0.2,0,0.3-0.1,0.3-0.1C102.1,252.7,102.1,252.7,101.8,252.8z"/>
	<path id="XMLID_31_" d="M259.2,114.8c-3.3,1.2-5.3,0.1-7.1-3.9l-12.9-25.7l-1.9-3.6L222.2,111c-1.7,3.5-3.5,5.1-6.8,3.8l19.3-37.3
		l-18-33.7c3.1-0.9,5.2-0.4,7.1,3.6l13.4,26l13.5-25.9c1.7-3.5,3.6-4.9,6.7-3.6l-7,13.3L241.1,75c-1.1,2-1,3.4,0.1,5.4L259.2,114.8z
		 M169.2,76.9l1.6-11.2c4.3-22.1,21.9-31.3,34.1-17.6c7.1,8,8.9,19.4,8.5,32.1h-40.1c-0.6,22.9,10.9,36.7,25.5,29.7
		c5.1-2.5,8.2-8.2,9.7-15.5c0.8-3.6,2-4.2,4.4-3.2c-1.2,9-3.9,16.6-9.7,21.3c-8.6,7.1-20.9,4.8-27.4-5c-3.9-5.7-5.4-12.9-6.2-20.6
		c-0.1-1.3-0.3-2.5-0.5-3.7C169.2,81.1,169.2,79,169.2,76.9L169.2,76.9z M173.4,75.4h36.2c-0.2-16.6-7.4-28.3-17.2-28.4
		C181.6,46.9,173.9,58.3,173.4,75.4z"/>
</g>
</svg>
