<?xml version="1.0" encoding="utf-8"?>
<!-- Generator: Adobe Illustrator 19.0.0, SVG Export Plug-In . SVG Version: 6.00 Build 0)  -->
<svg version="1.1" xmlns="http://www.w3.org/2000/svg" xmlns:xlink="http://www.w3.org/1999/xlink" x="0px" y="0px"
	 viewBox="0 0 292.3 292.3" style="enable-background:new 0 0 292.3 292.3;" xml:space="preserve">
<style type="text/css">
	.st0{fill:#D8D8D8;}
	.st1{fill:#FFFFFF;}
	.st2{stroke:#000000;stroke-miterlimit:10;}
	.st3{stroke:#EF1186;stroke-miterlimit:10;}
	.st4{fill:#CD6799;}
	.st5{fill:#FF61F6;}
	.st6{fill:#FF9A00;}
	.st7{fill:#0081CB;}
</style>
<g id="Layer_1">
	<g id="XMLID_1_">
		
			<image style="overflow:visible;opacity:0.3;" width="321" height="321" id="XMLID_372_" xlink:href="2C1D7340.png"  transform="matrix(1 0 0 1 -12.6667 -12.6667)">
		</image>
		<g id="XMLID_365_">
			<path id="XMLID_371_" class="st0" d="M239.4,291c-30.9,0-61.7-2.1-92.6-2.1c-31.3,0-62.6,2.1-93.8,2.1c-3.4,0-21.8-0.3-36.6-15.2
				C7,266.5,1.2,253.6,1.2,239.3c0-31.1,2.1-62.3,2.1-93.4c0-31-2.1-62-2.1-93c0-3.4,0.3-21.8,15.2-36.6C25.8,6.8,38.7,1,53,1
				c30.4,0,60.8,2,91.3,2c31.7,0,63.5-2,95.2-2c32.2,0,51.8,22.9,51.8,51.8c0,30.8-2.1,61.5-2.1,92.3c0,31.4,2.1,62.7,2.1,94.1
				c0,3.4-0.3,21.8-15.2,36.6C266.7,285.2,253.7,291,239.4,291z"/>
		</g>
	</g>
</g>
<g id="Layer_2">
	<path id="XMLID_2_" class="st1" d="M104.4,141.9h-50c-20.7,0-37.5-16.8-37.5-37.5v-50c0-20.7,16.8-37.5,37.5-37.5h50
		c20.7,0,37.5,16.8,37.5,37.5v50C141.9,125.1,125.1,141.9,104.4,141.9z"/>
	<path id="XMLID_3_" class="st1" d="M237.8,275.2h-50c-20.7,0-37.5-16.8-37.5-37.5v-50c0-20.7,16.8-37.5,37.5-37.5h50
		c20.7,0,37.5,16.8,37.5,37.5v50C275.3,258.4,258.5,275.2,237.8,275.2z"/>
	<path id="XMLID_4_" class="st1" d="M104,275.7H54c-20.7,0-37.5-16.8-37.5-37.5v-50c0-20.7,16.8-37.5,37.5-37.5h50
		c20.7,0,37.5,16.8,37.5,37.5v50C141.5,258.9,124.7,275.7,104,275.7z"/>
	<path id="XMLID_10_" class="st2" d="M282.3,73.8"/>
	<path id="XMLID_6_" class="st2" d="M272.3,73.8"/>
	<path id="XMLID_9_" class="st2" d="M210.8,3.3"/>
	<path id="XMLID_8_" class="st2" d="M210.8,13.3"/>
	<path id="XMLID_7_" class="st1" d="M238.5,141.4h-50c-20.7,0-37.5-16.8-37.5-37.5v-50c0-20.7,16.8-37.5,37.5-37.5h50
		c20.7,0,37.5,16.8,37.5,37.5v50C276,124.6,259.3,141.4,238.5,141.4z"/>
	<path id="XMLID_18_" class="st3" d="M63.8,1.3"/>
	<path id="XMLID_20_" class="st3" d="M1.3,57.8"/>
	<path id="XMLID_19_" class="st3" d="M16.3,57.8"/>
</g>
<g id="Layer_3">
	<path id="XMLID_17_" class="st4" d="M80.8,100.7 M117.8,83.5c-3,0-5.9,0.9-8.6,2.7c-0.9-2.4-1.8-4.4-1.9-6c-0.2-1.8-0.4-2.9-0.2-5
		s1.1-5.2,1.1-5.4c0-0.2-0.2-1.3-2.1-1.3c-1.9,0-3.6,0.5-3.8,1.2c-0.3,1.2-0.6,2.5-0.8,3.8c-0.3,2.3-3.8,10.6-5.8,14.9
		c-0.7-1.7-1.2-3.2-1.3-4.4c-0.2-1.8-0.4-2.9-0.2-5c0.2-2.1,1.1-5.2,1.1-5.4s-0.2-1.3-2.1-1.3c-1.9,0-3.6,0.5-3.8,1.2
		c-0.2,0.7-0.4,2.3-0.8,3.8c-0.4,1.5-5,15.3-6.2,18.9c-0.6,1.8-1.2,3.3-1.5,4.3c-0.1,0.2-0.1,0.3-0.1,0.3c0-0.1,0.1-0.2,0.1-0.2
		c-0.3,0.9-0.5,1.3-0.5,1.3v0c-0.3,0.6-0.5,1.2-0.7,1.2c-0.1,0-0.3-1.7,0-3.9c0.7-4.8,2.3-12.2,2.3-12.5c0-0.1,0.3-1.4-1.1-2.1
		c-1.4-0.7-1.8,0.4-2,0.4c-0.1,0-0.2,0.4-0.2,0.4s1.5-8.4-2.9-8.4c-2.7,0-6.5,4-8.4,7.6c-1.2,0.9-3.7,2.7-6.4,4.7
		c-1,0.8-2.1,1.5-3.1,2.3c-0.1-0.1-0.1-0.2-0.2-0.3c-5.3-7.6-15.1-12.9-14.7-23.1c0.1-3.7,1.1-13.4,18.9-25.2
		c14.5-9.7,26.2-7,28.2-1.1c2.9,8.4-6.2,24.1-21.3,26.3c-5.8,0.9-8.8-2.1-9.5-3.2c-0.8-1.2-0.9-1.2-1.2-1c-0.5,0.4-0.2,1.4,0,2
		c0.4,1.6,2.3,4.3,5.5,5.7c2.8,1.2,9.5,1.9,17.7-2.3c9.2-4.7,16.3-17.8,14.2-28.8c-2.1-11.2-16-14.8-29.1-8.6
		C58.5,35.6,50.1,41.4,44,49c-7.2,9-8.4,16.9-7.9,20.2C37.8,80.8,49.8,88.4,54.7,94c-0.2,0.2-0.5,0.3-0.7,0.5
		c-2.4,1.6-11.6,8-13.9,14.8c-2.6,7.7,0.4,13.2,2.4,13.9c6.2,2.3,12.6-1.8,16-8.6s3-15.7,1.4-19.7c0-0.1,0-0.1-0.1-0.2
		c0.6-0.5,1.3-1,1.9-1.5c1.2-1,2.4-1.9,3.5-2.6c-0.6,2.1-1,4.7-1.2,8.4c-0.3,4.4,1.1,10,2.8,12.2c0.8,1,1.7,1,2.3,1c2,0,3-2.3,4-4.9
		c1.3-3.3,2.4-7.1,2.4-7.1s-1.4,10.3,2.4,10.3c1.4,0,2.8-2.4,3.4-3.6v0c0,0,0-0.1,0.1-0.2c0.1-0.3,0.2-0.5,0.2-0.5v-0.1
		c0.6-1.3,1.8-4.2,3.7-9.1c2.4-6.3,4.7-14.1,4.7-14.1c0.2,1.7,0.5,3.4,0.9,5.1c0.4,1.9,1.3,3.9,2,5.9c-0.6,1-0.9,1.6-0.9,1.6
		c0,0,0,0,0,0c-0.4,0.8-1,1.6-1.5,2.5c-1.9,3-4.2,6.5-4.5,7.4c-0.4,1.2-0.3,2,0.4,2.7c0.5,0.5,1.4,0.6,2.3,0.5
		c1.7-0.2,2.9-0.7,3.5-1.1c1.1-0.5,2.1-1.2,3-2.1c1.9-1.8,3-4.4,2.9-7.9c-0.1-1.9-0.5-3.8-1.1-5.6c0.2-0.3,0.3-0.7,0.5-1
		c2.9-5.7,5.2-12,5.2-12c0.2,1.7,0.5,3.4,0.9,5.1c0.4,1.6,1.1,3.4,1.7,5.1c-2.8,3-4.5,6.5-5.1,8.7c-1.1,4.2-0.2,6.1,1.4,6.6
		c0.7,0.2,1.8-0.3,2.5-0.7c1.1-0.5,2.2-1.2,3.2-2.2c1.9-1.8,3.7-4.4,3.5-7.8c0-1.6-0.4-3.1-0.8-4.6c2.3-1.3,5.4-2,9.2-1.4
		c8.3,1.3,9.9,8.2,9.6,11c-0.3,2.9-2,4.5-2.6,4.9s-0.8,0.7-0.7,1c0.1,0.5,0.3,0.5,0.8,0.4c0.7-0.2,4.3-2.3,4.5-7.7
		C131.2,90.8,126.4,83.4,117.8,83.5L117.8,83.5z M54.1,112.1c-2.7,4-6.6,5.5-8.2,4.2c-1.8-1.4-1.1-7.2,2.3-11.5
		c2-2.6,4.7-4.9,6.4-6.4c0.4-0.3,1-0.8,1.7-1.4c0.1-0.1,0.2-0.1,0.2-0.1c0.1-0.1,0.3-0.2,0.4-0.3C58.1,102.6,57,107.9,54.1,112.1
		L54.1,112.1z M74,94c-1,3.1-3,11-4.2,10.6c-1-0.4-1.7-6.4-0.2-12.3c0.7-3,2.3-6.6,3.3-7.9c1.5-2.2,3.1-2.9,3.5-2.1
		C76.9,83.5,74.6,92.1,74,94L74,94z M90.5,104.5c-0.4,0.3-0.8,0.5-1,0.3c-0.1-0.1,0.2-0.5,0.2-0.5s2.1-2.9,2.9-4.3
		c0.5-0.8,1-1.7,1.6-2.8c0,0.1,0,0.2,0,0.3C94.2,101.2,91.7,103.5,90.5,104.5L90.5,104.5z M103.2,100.6c-0.3-0.3-0.3-1.2,0.7-4.1
		c0.4-1.1,1.3-3,2.8-4.8c0.2,0.7,0.3,1.4,0.3,2.1C107,98.3,104.6,99.9,103.2,100.6L103.2,100.6z"/>
	<path id="XMLID_25_" class="st5" d="M106.1,166.2H51.9c-11.3,0-20.4,9.4-20.4,21l0,0v53.1c0,11.6,9.2,21,20.4,21h0h54.1
		c11.3,0,20.4-9.4,20.4-21l0,0v-53.1C126.5,175.6,117.3,166.2,106.1,166.2L106.1,166.2z M81.9,233.1h-9.1c-0.6,0-1.1,0-1.3-0.5
		c-0.9-1.7-1.7-3.4-2.5-5.1c-0.9-1.7-1.8-3.4-2.7-5.1c-1-1.8-1.9-3.5-2.8-5.3h-0.1c-0.9,1.8-1.7,3.5-2.6,5.2
		c-0.9,1.7-1.8,3.5-2.7,5.2c-0.9,1.7-1.8,3.4-2.7,5.1c-0.2,0.4-0.5,0.4-0.9,0.4h-8.7c-0.2,0-0.3,0.1-0.3-0.1c0-0.2,0-0.3,0.1-0.5
		l12.3-20.7l-12-20.8c-0.1-0.2-0.2-0.3-0.1-0.4c0.1-0.1,0.2-0.2,0.4-0.2h9c0.2,0,0.4,0,0.6,0.1c0.2,0.1,0.3,0.2,0.4,0.4
		c0.8,1.7,1.6,3.5,2.5,5.2s1.9,3.5,2.8,5.2c1,1.7,1.8,3.4,2.6,5.2h0.1c0.8-1.8,1.7-3.5,2.6-5.2c0.9-1.7,1.8-3.4,2.7-5.1
		c0.9-1.7,1.8-3.4,2.6-5.1c0-0.2,0.1-0.3,0.3-0.4c0.2-0.1,0.3-0.1,0.5-0.1h8.3c0.2,0,0.4,0.1,0.4,0.3c0,0.1,0,0.3-0.1,0.4l0,0
		l-11.9,20.1l12.7,21.3c0.1,0.2,0.1,0.3,0.1,0.5C82.3,233.2,82.1,233.1,81.9,233.1z M112.3,231.4c-2.1,0.9-4.2,1.5-6.4,2
		c-2,0.4-4.1,0.6-6.1,0.6c-2.9,0-5.8-0.6-8.5-1.8c-2.5-1.2-4.6-3.1-6-5.5c-1.5-2.8-2.3-6-2.2-9.2c0-3,0.7-6,2.2-8.6
		c1.5-2.7,3.7-4.8,6.3-6.3c3.3-1.8,7.1-2.6,10.8-2.3c0.3,0,0.7,0.1,1.2,0.1v-12.9c0-0.3,0.1-0.5,0.4-0.5h8c0.2,0,0.4,0.1,0.4,0.3
		c0,0,0,0.1,0,0.1V226c0,0.7,0,1.5,0.1,2.4c0.1,0.9,0.1,1.7,0.2,2.4C112.7,231,112.5,231.3,112.3,231.4z M102.6,207.8
		c0.4,0,0.7,0.1,1.1,0.2v17.8c-0.5,0.1-0.9,0.2-1.4,0.3c-0.6,0-1.1,0.1-1.7,0.1c-1.1,0-2.2-0.2-3.3-0.5c-1-0.3-1.9-0.9-2.7-1.6
		c-0.8-0.8-1.4-1.8-1.8-2.9c-0.5-1.3-0.7-2.8-0.7-4.2c-0.1-1.8,0.4-3.6,1.3-5.2c0.8-1.3,2-2.3,3.3-3c1.4-0.7,2.9-1.1,4.5-1
		C101.7,207.8,102.1,207.8,102.6,207.8z"/>
	<path id="XMLID_31_" class="st6" d="M208.4,208.6c-0.4-1.3-0.8-2.6-1.2-3.9c-0.4-1.3-0.8-2.6-1.1-3.8c-0.3-1.2-0.6-2.3-0.9-3.3H205
		c-0.4,1.8-0.8,3.7-1.4,5.5c-0.6,2.1-1.3,4.2-1.9,6.3c-0.5,1.9-1.1,3.7-1.6,5.3c-0.1,0.3,0.1,0.7,0.5,0.7l9.3,0
		c0.3,0,0.6-0.3,0.5-0.7l-0.8-2.4C209.1,211.1,208.8,209.9,208.4,208.6z M245.4,164h-63.5c-9.6,0-17.4,7.9-17.4,17.7v62
		c0,9.8,7.8,17.7,17.4,17.7h63.5c9.6,0,17.4-7.9,17.4-17.7v-62C262.8,171.9,255,164,245.4,164z M225.8,234.6H217
		c-0.3,0-0.6-0.2-0.7-0.5l-3.3-9.8c-0.1-0.2-0.3-0.3-0.5-0.3h-14.8c-0.2,0-0.4,0.1-0.5,0.3l-3.1,9.7c-0.1,0.4-0.4,0.6-0.8,0.6h-7.8
		c-0.5,0-0.6-0.3-0.5-0.8l13.4-39.6c0.1-0.4,0.2-0.9,0.4-1.4c0,0,0,0,0-0.1c0.2-0.9,0.2-1.8,0.2-2.7c0-0.2,0.1-0.4,0.3-0.5h10.8
		c0.3,0,0.5,0.1,0.5,0.3l15.2,44C226.3,234.4,226.2,234.6,225.8,234.6z M239.9,234c0,0.5-0.2,0.7-0.5,0.7h-8.3
		c-0.3,0-0.5-0.2-0.5-0.5v-33.1c0-0.4,0.2-0.6,0.5-0.6h8.3c0.3,0,0.5,0.2,0.5,0.5V234z M239,195.4c-1,1-2.4,1.6-3.8,1.5
		c-1.4,0-2.7-0.5-3.7-1.5c-1-1.1-1.5-2.5-1.4-3.9c0-1.5,0.5-2.8,1.5-3.8c1-1,2.3-1.5,3.7-1.5c1.6,0,2.9,0.5,3.8,1.5
		c0.9,1,1.4,2.4,1.4,3.8C240.5,192.9,240,194.3,239,195.4z"/>
	<path id="XMLID_34_" class="st7" d="M168.8,39.3v49.1l11.3,8.2V63.9l22.5,16.4l22.5-16.4v16.4l-22.5,16.4V113l22.5,16.4l33.8-24.5
		V72.1l-11.3,8.2v16.4L225.1,113l-11.3-8.2l22.5-16.4V39.3l-33.8,24.5L168.8,39.3z M258.8,39.3l-11.3,8.2v16.4l11.3-8.2V39.3
		L258.8,39.3z"/>
</g>
</svg>
