<?xml version="1.0" encoding="utf-8"?>
<!-- Generator: Adobe Illustrator 19.0.0, SVG Export Plug-In . SVG Version: 6.00 Build 0)  -->
<svg version="1.1" id="Layer_2" xmlns="http://www.w3.org/2000/svg" xmlns:xlink="http://www.w3.org/1999/xlink" x="0px" y="0px"
	 viewBox="277.3 43 581.3 469.7" style="enable-background:new 277.3 43 581.3 469.7;" xml:space="preserve">
<style type="text/css">
	.st0{fill:url(#SVGID_1_);}
</style>
<linearGradient id="SVGID_1_" gradientUnits="userSpaceOnUse" x1="44.062" y1="185.0143" x2="501.2964" y2="185.0143" gradientTransform="matrix(-0.876 0.4823 -0.4823 -0.876 901.044 312.5419)">
	<stop  offset="1.076729e-007" style="stop-color:#17E3D5"/>
	<stop  offset="1" style="stop-color:#11FFBD"/>
</linearGradient>
<path class="st0" d="M333.4,294.7c18.8,13.2,39.9,20.5,61.3,22.4c109.8,10.8,209.3,69.3,272,160c4.9,7.3,11.2,13.8,18.9,19.2
	c33.9,23.9,80.7,15.7,104.5-18.1c8.6-12.2,13-26,13.6-39.9l0,0c1.1-24.8,13.1-47.8,32.7-63c4-3,7.7-6.7,10.7-11.1
	c15.9-22.6,10.5-53.8-12.1-69.7c-1.7-1.2-3.4-2.2-5.2-3.2l0,0c-27.8-14.9-47.5-41.2-54-72.1l0,0c-6.3-29.9-23.4-57.6-50.3-76.5
	c-16.7-11.7-35.2-18.8-54.1-21.5c-31.1-5.2-58.4-23.6-74.8-50.6c-3.5-5.7-8.2-10.9-14-15c-17.8-12.6-41-11.8-57.8,0.1
	c-25.1,17.7-56.6,23.6-86.3,16.2c-49.4-13.6-104.1,4.3-135.3,48.6C263.5,177,277,254.9,333.4,294.7z"/>
</svg>
