<?xml version="1.0" encoding="utf-8"?>
<!-- Generator: Adobe Illustrator 19.0.0, SVG Export Plug-In . SVG Version: 6.00 Build 0)  -->
<svg version="1.1" xmlns="http://www.w3.org/2000/svg" xmlns:xlink="http://www.w3.org/1999/xlink" x="0px" y="0px"
	 viewBox="0 0 257 543" style="enable-background:new 0 0 257 543;" xml:space="preserve">
<style type="text/css">
	.st0{fill:url(#XMLID_2_);}
</style>
<g id="Layer_1">
	<linearGradient id="XMLID_2_" gradientUnits="userSpaceOnUse" x1="0" y1="270.6182" x2="255.1124" y2="270.6182">
		<stop  offset="0" style="stop-color:#17E3D5"/>
		<stop  offset="1" style="stop-color:#11FFBD"/>
	</linearGradient>
	<path id="XMLID_5_" class="st0" d="M0,538.1c6,0,12-2.1,16-5.7v0c13-10.4,29.2-14.6,45.3-11.6l0,0c4.5,0.8,9.1,1.3,13.8,1.3
		c39.6,0,72-30.7,74.8-69.6l0,0c2.7-38.4,22.3-73.5,53.5-96.1c31.3-22.7,51.7-59.6,51.7-101.3c0-50.6-30-94.1-73.3-113.8
		c-33.5-16.1-58.3-45.9-68.1-81.8C105.5,27.1,76.1,3.1,41.1,3.1C20.4,3.1,4.8,12.3,0,15.5"/>
</g>
<g id="Layer_2">
</g>
</svg>
