<?xml version="1.0" encoding="utf-8"?>
<!-- Generator: Adobe Illustrator 19.0.0, SVG Export Plug-In . SVG Version: 6.00 Build 0)  -->
<svg version="1.1" xmlns="http://www.w3.org/2000/svg" xmlns:xlink="http://www.w3.org/1999/xlink" x="0px" y="0px"
	 viewBox="0 0 293 293" style="enable-background:new 0 0 293 293;" xml:space="preserve">
<style type="text/css">
	.st0{fill:#D8D8D8;}
	.st1{fill:#FFFFFF;}
	.st2{stroke:#000000;stroke-miterlimit:10;}
	.st3{stroke:#EF1186;stroke-miterlimit:10;}
	.st4{fill:#3178C6;}
	.st5{fill:#764ABC;}
	.st6{fill:#61DAFB;}
	.st7{fill:#F7DF1E;}
</style>
<g id="Layer_1">
	<g id="XMLID_1_">
		
			<image style="overflow:visible;opacity:0.3;" width="321" height="321" id="XMLID_117_" xlink:href="F44E951D.png"  transform="matrix(1 0 0 1 -12 -12.5)">
		</image>
		<g id="XMLID_110_">
			<path id="XMLID_116_" class="st0" d="M240.1,291.2c-30.9,0-61.7-2.1-92.6-2.1c-31.3,0-62.6,2.1-93.8,2.1
				c-3.4,0-21.8-0.3-36.6-15.2c-9.4-9.4-15.2-22.3-15.2-36.6C1.9,208.3,4,177.1,4,146c0-31-2.1-62-2.1-93c0-3.4,0.3-21.8,15.2-36.6
				C26.4,7,39.4,1.2,53.7,1.2c30.4,0,60.8,2,91.3,2c31.7,0,63.5-2,95.2-2c32.2,0,51.8,22.9,51.8,51.8c0,30.8-2.1,61.5-2.1,92.3
				c0,31.4,2.1,62.7,2.1,94.1c0,3.4-0.3,21.8-15.2,36.6C267.4,285.4,254.4,291.2,240.1,291.2z"/>
		</g>
	</g>
</g>
<g id="Layer_2">
	<path id="XMLID_2_" class="st1" d="M105.1,142.1h-50c-20.7,0-37.5-16.8-37.5-37.5v-50c0-20.7,16.8-37.5,37.5-37.5h50
		c20.7,0,37.5,16.8,37.5,37.5v50C142.6,125.3,125.8,142.1,105.1,142.1z"/>
	<path id="XMLID_3_" class="st1" d="M238.5,275.3h-50c-20.7,0-37.5-16.8-37.5-37.5v-50c0-20.7,16.8-37.5,37.5-37.5h50
		c20.7,0,37.5,16.8,37.5,37.5v50C276,258.5,259.2,275.3,238.5,275.3z"/>
	<path id="XMLID_4_" class="st1" d="M104.7,275.8h-50c-20.7,0-37.5-16.8-37.5-37.5v-50c0-20.7,16.8-37.5,37.5-37.5h50
		c20.7,0,37.5,16.8,37.5,37.5v50C142.2,259,125.4,275.8,104.7,275.8z"/>
	<path id="XMLID_10_" class="st2" d="M283,74"/>
	<path id="XMLID_6_" class="st2" d="M273,74"/>
	<path id="XMLID_9_" class="st2" d="M211.5,3.5"/>
	<path id="XMLID_8_" class="st2" d="M211.5,13.5"/>
	<path id="XMLID_7_" class="st1" d="M239.2,141.5h-50c-20.7,0-37.5-16.8-37.5-37.5V54c0-20.7,16.8-37.5,37.5-37.5h50
		c20.7,0,37.5,16.8,37.5,37.5v50C276.7,124.8,259.9,141.5,239.2,141.5z"/>
	<path id="XMLID_18_" class="st3" d="M64.5,1.5"/>
	<path id="XMLID_20_" class="st3" d="M2,58"/>
	<path id="XMLID_19_" class="st3" d="M17,58"/>
</g>
<g id="Layer_3">
	<path id="XMLID_14_" class="st4" d="M174.2,34.2c-2.3,0-4.2,1.9-4.2,4.2v81.6c0,2.3,1.9,4.2,4.2,4.2h81.6c2.3,0,4.2-1.9,4.2-4.2
		V38.4c0-2.3-1.9-4.2-4.2-4.2H174.2z M239.3,70.7c2.3,0,4.3,0.1,6.1,0.4c1.7,0.3,3.3,0.7,4.9,1.3v9.2c-0.8-0.5-1.6-1-2.4-1.4
		c-0.9-0.4-1.8-0.7-2.7-1c-1.7-0.5-3.5-0.7-5.3-0.7c-1.1,0-2.1,0.1-3.1,0.3c-0.8,0.2-1.6,0.5-2.3,0.9c-0.6,0.4-1.1,0.9-1.5,1.4
		c-0.4,0.5-0.5,1.2-0.5,1.8c0,0.7,0.2,1.4,0.6,2c0.4,0.6,0.9,1.1,1.7,1.7c0.7,0.5,1.6,1,2.6,1.5c1,0.5,2.2,1,3.5,1.6
		c1.8,0.7,3.3,1.5,4.7,2.4c1.4,0.8,2.6,1.8,3.6,2.8c1,1,1.8,2.2,2.3,3.6s0.8,2.9,0.8,4.7c0,2.5-0.5,4.5-1.4,6.2
		c-0.9,1.6-2.2,3-3.8,4.1c-1.7,1.1-3.6,1.8-5.6,2.2c-2.1,0.5-4.4,0.7-6.7,0.7c-2.3,0-4.6-0.2-6.9-0.6c-2-0.3-3.9-1-5.7-1.8v-9.9
		c3.4,2.9,7.7,4.5,12.1,4.5c1.2,0,2.3-0.1,3.3-0.3c0.9-0.2,1.7-0.5,2.3-0.9c0.6-0.4,1.1-0.9,1.4-1.4c0.7-1.3,0.6-2.9-0.3-4.1
		c-0.6-0.7-1.2-1.4-2-1.9c-1-0.6-2-1.2-3-1.7c-1.2-0.6-2.5-1.1-3.8-1.6c-3.4-1.4-6-3.2-7.7-5.3c-1.7-2.1-2.5-4.6-2.5-7.5
		c0-2.3,0.5-4.3,1.4-5.9c0.9-1.7,2.2-3,3.8-4.1c1.7-1.1,3.5-1.9,5.5-2.4C234.9,71,237.1,70.7,239.3,70.7z M182.7,71.4h35.9v8.1
		h-12.9v36.2h-10.2V79.6h-12.8V71.4z"/>
	<path id="redux" class="st5" d="M97.9,228.8c3.4-0.4,5.9-3.5,5.6-6.9c-0.1-3.5-2.9-6.4-6.4-6.5h-0.2c-3.6,0.2-6.4,3.4-6.2,7
		c0.1,1.7,0.7,3.3,1.9,4.6c-3.9,8.1-9.8,14-18.8,19c-5.6,3.2-12.1,4.5-18.5,3.7c-5.2-0.8-9.2-3.2-11.7-7.1c-3.7-5.6-4.1-12.8-1-18.7
		c1.8-3.8,4.5-7.1,7.9-9.7c-0.7-2-1.2-4-1.6-6.1c-16.6,12.6-14.9,29.7-9.9,37.9c3.8,5.9,11.5,9.7,19.9,9.7c2.3,0,4.6-0.2,6.9-0.8
		c14.6-3,25.7-12.2,32-25.8L97.9,228.8z M117.9,214c-8.7-10.8-21.5-16.7-36.1-16.7h-1.9c-1-2.2-3.2-3.6-5.6-3.6h-0.2
		c-3.5,0-6.3,3.2-6.2,6.9c0.1,3.5,2.9,6.4,6.4,6.5h0.3c2.5-0.1,4.7-1.8,5.6-4.1h2.1c8.7,0,17.2,2.8,24.3,7.9
		c5.6,3.7,9.8,9.1,12.1,15.4c2,5.1,1.9,10.1-0.2,14.2c-3.2,6.5-8.6,10-15.7,10c-3.8-0.1-7.6-0.9-11.1-2.5c-1.4,1.2-3.6,3.1-5.2,4.3
		c4.6,2.3,9.6,3.6,14.8,3.7c11,0,19.1-6.5,22.2-12.8c3.4-7.1,3.1-19.1-5.5-29.3L117.9,214z M59.8,230.9c0.1,3.5,2.9,6.4,6.4,6.5h0.2
		c1.7-0.1,3.4-0.8,4.5-2.1c1.2-1.3,1.8-3.1,1.7-4.9c0-3.5-2.8-6.4-6.3-6.5h-0.2c-0.3,0-0.6,0-0.8,0.1c-4.6-8.1-6.7-17.5-5.9-26.8
		c0.3-6.8,2.6-13.3,6.7-18.7c3.4-4.4,9.7-6.6,14.1-6.8c12.1-0.2,17.2,15.7,17.6,22l5.6,1.8C102,176.2,90.6,166,79.6,166
		c-10.3,0-19.8,7.9-23.6,19.4c-5.2,15.4-1.8,30.2,4.6,42.1C60,228.5,59.7,229.7,59.8,230.9z"/>
	<path id="XMLID_101_" class="st6" d="M109,63.7c-0.9-0.4-1.9-0.7-2.8-1c0.2-0.7,0.3-1.5,0.4-2.2c2.2-12,0.7-21.6-4.1-24.8
		c-4.6-3-12.2,0.1-19.8,7.7c-0.8,0.7-1.5,1.5-2.2,2.3c-0.5-0.5-1-1-1.5-1.5c-8-8.1-16-11.5-20.8-8.3c-4.6,3.1-6,12.1-4,23.4
		c0.2,1.1,0.4,2.2,0.7,3.4c-1.1,0.4-2.2,0.8-3.3,1.2c-9.4,3.7-16.1,9.6-16.1,15.6c0,6.3,7.2,12.6,16.9,16.4c0.8,0.3,1.6,0.6,2.4,0.9
		c-0.3,1.2-0.5,2.4-0.7,3.6c-1.8,11.1-0.4,20,4.2,23c4.7,3.1,12.7-0.1,20.5-7.9c0.6-0.6,1.2-1.3,1.8-1.9c0.8,0.9,1.6,1.7,2.4,2.5
		c7.5,7.4,15,10.4,19.5,7.4c4.7-3.1,6.3-12.6,4.3-24.2c-0.2-0.9-0.3-1.8-0.5-2.7c0.6-0.2,1.1-0.4,1.7-0.6
		c10.1-3.8,17.5-10,17.5-16.4C125.5,73.4,118.6,67.4,109,63.7L109,63.7z M85.2,46.6c6.5-6.5,12.6-9.1,15.4-7.2
		c3,1.9,4.1,9.8,2.3,20.2c-0.1,0.7-0.2,1.3-0.4,2c-3.9-1-7.9-1.7-11.8-2.1c-2.3-3.7-4.8-7.3-7.5-10.7C83.9,48,84.5,47.3,85.2,46.6z
		 M64.9,89.9c0.9,1.7,1.8,3.5,2.8,5.2c-2.7-0.3-5.5-0.8-8.2-1.5c0.8-2.9,1.7-5.9,2.9-8.9C63.2,86.4,64,88.1,64.9,89.9L64.9,89.9z
		 M59.6,65.7c2.5-0.6,5.2-1.2,8-1.6c-0.9,1.7-1.8,3.4-2.7,5.1c-0.9,1.7-1.7,3.5-2.5,5.2C61.3,71.5,60.3,68.5,59.6,65.7L59.6,65.7z
		 M64.4,79.5c1.2-2.8,2.4-5.5,3.8-8.2c1.3-2.7,2.8-5.3,4.3-7.8c2.6-0.2,5.3-0.3,8.1-0.3c2.7,0,5.4,0.1,8.1,0.3
		c1.5,2.5,2.9,5.1,4.3,7.8c1.4,2.7,2.6,5.4,3.8,8.1c-1.2,2.8-2.4,5.5-3.8,8.2c-1.3,2.7-2.8,5.3-4.3,7.8c-2.6,0.2-5.3,0.3-8.1,0.3
		c-2.8,0-5.4-0.1-8-0.3c-1.5-2.6-3-5.2-4.3-7.8C66.8,85,65.6,82.3,64.4,79.5L64.4,79.5z M96.1,89.8c0.9-1.8,1.7-3.6,2.6-5.4
		c1.1,2.9,2.1,5.9,3,8.9c-2.7,0.7-5.5,1.2-8.3,1.6C94.4,93.3,95.2,91.6,96.1,89.8L96.1,89.8z M98.7,74.5c-0.8-1.8-1.7-3.5-2.5-5.3
		c-0.9-1.7-1.8-3.4-2.7-5.1c2.8,0.4,5.5,0.9,8.1,1.6C100.7,68.7,99.7,71.6,98.7,74.5z M80.5,51.9c1.8,2.3,3.6,4.7,5.2,7.2
		c-3.5-0.2-7-0.2-10.5,0C77,56.5,78.8,54,80.5,51.9z M60.1,39.5c3-2,9.5,0.8,16.4,7.8c0.4,0.4,0.9,0.9,1.3,1.4
		c-2.7,3.4-5.2,6.9-7.5,10.7c-4,0.4-7.9,1.1-11.8,2.1c-0.2-1-0.4-2.1-0.6-3.1C56.3,48.7,57.4,41.4,60.1,39.5L60.1,39.5z M55.8,92.5
		c-0.7-0.2-1.5-0.5-2.2-0.8c-3.7-1.3-8-3.5-11.1-6.3c-1.8-1.4-3-3.6-3.3-6c0-3.7,5.6-8.4,13.6-11.6c1-0.4,2-0.8,3-1.1
		c1.2,4.4,2.6,8.6,4.3,12.8C58.5,83.7,57.1,88.1,55.8,92.5z M76.3,112.2c-2.9,3-6.3,5.4-9.9,7.1c-2,1.1-4.2,1.2-6.2,0.3
		c-2.8-1.8-4-8.9-2.4-18.5c0.2-1.1,0.4-2.2,0.7-3.4c3.9,1,7.9,1.6,11.9,2c2.3,3.8,4.9,7.4,7.6,10.7C77.5,111,76.9,111.6,76.3,112.2
		L76.3,112.2z M80.6,107.3c-1.8-2.2-3.6-4.7-5.3-7.3c1.7,0.1,3.4,0.1,5.2,0.1c1.8,0,3.6,0,5.3-0.1C84.2,102.5,82.5,105,80.6,107.3z
		 M103.6,113.3c-0.2,2.5-1.2,4.7-2.9,6.3c-2.8,1.8-8.8-0.6-15.2-6.9c-0.7-0.7-1.5-1.5-2.2-2.3c2.7-3.4,5.2-7,7.4-10.8
		c4-0.4,8-1.1,12-2.1c0.2,0.8,0.3,1.6,0.5,2.5C104,104.3,104.2,108.9,103.6,113.3L103.6,113.3z M106.8,91.7c-0.5,0.2-1,0.4-1.5,0.5
		c-1.2-4.4-2.7-8.7-4.5-12.8c1.7-4.1,3.1-8.3,4.3-12.6c0.9,0.3,1.8,0.6,2.6,0.9c8.2,3.2,13.9,8,13.9,11.7
		C121.7,83.3,115.6,88.4,106.8,91.7z M80.5,88.7c4.4,0,8.1-4.1,8.1-9.2c0-5.1-3.6-9.2-8.1-9.2s-8.1,4.1-8.1,9.2
		C72.4,84.6,76.1,88.7,80.5,88.7L80.5,88.7z"/>
	<path id="XMLID_105_" class="st7" d="M169,168v90h90v-90H169z M218,238.2c0,8.8-5.1,12.8-12.6,12.8c-6.8,0-10.7-3.5-12.7-7.7
		l6.9-4.2c1.3,2.4,2.5,4.3,5.4,4.3c2.8,0,4.5-1.1,4.5-5.3v-28.7h8.5V238.2L218,238.2z M238,250.9c-7.9,0-12.9-3.7-15.4-8.6l6.9-4
		c1.8,3,4.2,5.1,8.3,5.1c3.5,0,5.7-1.7,5.7-4.2c0-2.9-2.3-3.9-6.2-5.6l-2.1-0.9c-6.1-2.6-10.1-5.9-10.1-12.8
		c0-6.3,4.8-11.2,12.4-11.2c5.4,0,9.2,1.9,12,6.8l-6.6,4.2c-1.4-2.6-3-3.6-5.4-3.6c-2.5,0-4,1.6-4,3.6c0,2.5,1.6,3.6,5.2,5.1
		l2.1,0.9c7.2,3.1,11.2,6.2,11.2,13.3C252,246.8,246,250.9,238,250.9L238,250.9z"/>
</g>
</svg>
