<?xml version="1.0" encoding="utf-8"?>
<!-- Generator: Adobe Illustrator 19.0.0, SVG Export Plug-In . SVG Version: 6.00 Build 0)  -->
<svg version="1.1" xmlns="http://www.w3.org/2000/svg" xmlns:xlink="http://www.w3.org/1999/xlink" x="0px" y="0px"
	 viewBox="0 0 301.1 399" style="enable-background:new 0 0 301.1 399;" xml:space="preserve">
<style type="text/css">
	.st0{fill:url(#XMLID_2_);}
</style>
<g id="Layer_1">
</g>
<g id="ball">
	<g id="XMLID_5_">
		<linearGradient id="XMLID_2_" gradientUnits="userSpaceOnUse" x1="0.7485" y1="197.8229" x2="301.4152" y2="197.8229">
			<stop  offset="0" style="stop-color:#17E3D5"/>
			<stop  offset="1" style="stop-color:#11FFBD"/>
		</linearGradient>
		<path id="XMLID_55_" class="st0" d="M301.4,0c0,0-88.4,0-300.7,0c0,0.3,0.1,0.8,0.2,1.3c0,0,0.2,0.9,0.5,1.9
			c0.7,2.5,1.8,4.8,3.1,6.9l0,0c9.9,15.3,12.6,34.2,7.5,51.6c-5.5,17.8-6.2,37.3-0.8,56.6c8.4,30.1,29.8,53.2,56.4,64.7l-0.1,0.1
			c45.1,19.6,79.1,58.2,93.1,105.3l0,0c23.2,78.5,65.6,104.1,140.6,107.1"/>
	</g>
</g>
</svg>
