<?xml version="1.0" encoding="utf-8"?>
<!-- Generator: Adobe Illustrator 19.0.0, SVG Export Plug-In . SVG Version: 6.00 Build 0)  -->
<svg version="1.1" id="Layer_1" xmlns="http://www.w3.org/2000/svg" xmlns:xlink="http://www.w3.org/1999/xlink" x="0px" y="0px"
	 viewBox="0 0 308 256.9" style="enable-background:new 0 0 308 256.9;" xml:space="preserve">
<style type="text/css">
	.st0{fill:url(#XMLID_2_);}
</style>
<linearGradient id="XMLID_2_" gradientUnits="userSpaceOnUse" x1="98.0515" y1="215.7204" x2="206.5199" y2="27.8476">
	<stop  offset="1.076729e-007" style="stop-color:#17E3D5"/>
	<stop  offset="1" style="stop-color:#11FFBD"/>
</linearGradient>
<path id="XMLID_8_" class="st0" d="M304,112.9c0-27.6-22.6-50-50.2-50c-1.2,0-1.8,0.1-3.8,0.1v0c-27,1.9-53-8.2-72-27.7v0
	c-18-18.8-43.7-30.4-71.9-30.4C50.9,4.9,6,49.7,6,104.9c0,40,25.7,67.2,29.7,71.1c21.8,21.5,49.5,29,70.3,28.9c0.6,0,1.1,0,1.4,0
	l0,0c27.9-0.4,54.5,11.6,72.7,32.7l0,0c9.2,10.6,22.7,17.3,37.8,17.3c27.6,0,50-22.4,50-50c0-1.1,0-2.1-0.1-3.2l0,0
	c-0.5-5.6-0.5-15,3.1-25.7c4.7-14,13.1-22.9,17.5-27l0,0C298,140,304,127.2,304,112.9z"/>
</svg>
