<?xml version="1.0" encoding="utf-8"?>
<!-- Generator: Adobe Illustrator 19.0.0, SVG Export Plug-In . SVG Version: 6.00 Build 0)  -->
<svg version="1.1" id="Layer_1" xmlns="http://www.w3.org/2000/svg" xmlns:xlink="http://www.w3.org/1999/xlink" x="0px" y="0px"
	 viewBox="-294 96.5 370.5 368.5" style="enable-background:new -294 96.5 370.5 368.5;" xml:space="preserve">
<style type="text/css">
	.st0{fill:#D8D8D8;}
	.st1{fill:url(#SVGID_1_);}
	.st2{fill:url(#SVGID_2_);}
	.st3{fill:url(#SVGID_3_);}
	.st4{fill:url(#SVGID_4_);}
	.st5{fill:url(#SVGID_5_);}
	.st6{fill:url(#SVGID_6_);}
	.st7{fill:url(#SVGID_7_);}
	.st8{fill:none;stroke:#FFFFFF;stroke-miterlimit:10;}
	.st9{fill:none;stroke:#FFFFFF;stroke-miterlimit:10;stroke-dasharray:4.0118,4.0118;}
	.st10{opacity:0.7;fill:#FFFFFF;enable-background:new    ;}
	.st11{fill:#FFFFFF;}
	.st12{fill:#FBBEBE;}
	.st13{fill:#2F2E41;}
	.st14{fill:#3F3D56;}
	.st15{fill:#FCFCFC;}
	.st16{fill:#333333;}
	.st17{font-family:'Chomsky';}
	.st18{font-size:8px;}
</style>
<g id="Layer_3_1_">
	<path class="st0" d="M74.5,411.2c0,28.8-23.4,52.1-52.1,52.1c-42.5,0-85.2-4.2-127.8-4.2c-44.3,0-88.6,4.2-133,4.2
		c-3.4,0-21.9-0.3-36.9-15.2c-9.4-9.4-15.2-22.4-15.2-36.9c0-42.8,4.2-85.5,4.2-128.3c0-44.1-4.2-88.3-4.2-132.4
		c0.5-7.9,2.8-24.4,15.2-36.9c9.4-9.4,22.4-15.2,36.9-15.2c44.1,0,88.3,4.2,132.4,4.2c42.8,0,85.5-4.2,128.3-4.2
		c3.4,0,21.9,0.3,36.9,15.2c9.4,9.4,15.2,22.4,15.2,36.9c0,44.1-4.2,88.3-4.2,132.4C70.3,325.6,74.5,368.4,74.5,411.2z"/>
</g>
<g id="Layer_3">
	
		<linearGradient id="SVGID_1_" gradientUnits="userSpaceOnUse" x1="-298.7395" y1="33.9186" x2="83.7128" y2="254.7275" gradientTransform="matrix(1 0 0 -1 0 425.6)">
		<stop  offset="0" style="stop-color:#8E2DE2"/>
		<stop  offset="1" style="stop-color:#4A00E0"/>
	</linearGradient>
	<path class="st1" d="M67.5,406.3c0,27.6-22.4,50-50,50c-40.8,0-81.7-4-122.5-4c-42.5,0-85,4-127.5,4c-3.3,0-21-0.3-35.4-14.6
		c-9-9-14.6-21.5-14.6-35.4c0-41,4-82,4-123c0-42.3-4-84.7-4-127c0.5-7.6,2.7-23.4,14.6-35.4c9-9,21.5-14.6,35.4-14.6
		c42.3,0,84.7,4,127,4c41,0,82-4,123-4c3.3,0,21,0.3,35.4,14.6c9,9,14.6,21.5,14.6,35.4c0,42.3-4,84.7-4,127
		C63.5,324.3,67.5,365.3,67.5,406.3z"/>
</g>
<g id="Layer_2">
	
		<linearGradient id="SVGID_2_" gradientUnits="userSpaceOnUse" x1="-189.8" y1="62.1" x2="-157.3667" y2="62.1" gradientTransform="matrix(1 0 0 -1 0 425.6)">
		<stop  offset="0" style="stop-color:#FFFFFF;stop-opacity:0.2"/>
		<stop  offset="0.9158" style="stop-color:#FFFFFF;stop-opacity:0"/>
	</linearGradient>
	<circle class="st2" cx="-172.3" cy="363.5" r="17.5"/>
	
		<linearGradient id="SVGID_3_" gradientUnits="userSpaceOnUse" x1="-282.2579" y1="138.2919" x2="43.214" y2="138.2919" gradientTransform="matrix(1 0 0 1 0 143)">
		<stop  offset="0" style="stop-color:#FFFFFF;stop-opacity:0.2"/>
		<stop  offset="0.9158" style="stop-color:#FFFFFF;stop-opacity:0"/>
	</linearGradient>
	<path class="st3" d="M-254.4,451c12,5.5,23.3,5.4,38.2,4.9c34.5-0.6,69.1-3.9,109.2-4.5c53-0.9,88.8,4.6,141,1.3
		c10.7-0.7,29.8-19.8,32.3-38c9-61-7.3-91.8-3.3-151.8c1-17,2.4-34.3,2-52.5c-0.5-20.7,3.8-34.2,1.8-56.2c-2-18-9.7-31.7-21.7-39.7
		c-25.7-14-59.2-5.3-90.5-6c-21.4,31.6-27.8,67.1-28.2,69.7c-7.9,52.3,27.1,82.1,5.3,117.3c-17.2,27.8-40.3,101.9-119.3,66.7
		c-25.9-11.5-49.7-12.5-67.7-3.2c-14,7.2-28.5,17.2-26.7,41.5c-0.8,9.1,0.1,18.9,5,27.8C-270.9,440.3-265,444.8-254.4,451z"/>
	
		<linearGradient id="SVGID_4_" gradientUnits="userSpaceOnUse" x1="-301.5" y1="291.3" x2="-301.5" y2="291.3" gradientTransform="matrix(1 0 0 1 0 143)">
		<stop  offset="0" style="stop-color:#FFFFFF;stop-opacity:0.2"/>
		<stop  offset="0.9158" style="stop-color:#FFFFFF;stop-opacity:0"/>
	</linearGradient>
	<path class="st4" d="M-301.5,434.3"/>
	
		<linearGradient id="SVGID_5_" gradientUnits="userSpaceOnUse" x1="51.5" y1="326" x2="51.5" y2="326" gradientTransform="matrix(1 0 0 1 0 143)">
		<stop  offset="0" style="stop-color:#FFFFFF;stop-opacity:0.2"/>
		<stop  offset="0.9158" style="stop-color:#FFFFFF;stop-opacity:0"/>
	</linearGradient>
	<path class="st5" d="M51.5,469"/>
	
		<linearGradient id="SVGID_6_" gradientUnits="userSpaceOnUse" x1="-216.8" y1="238" x2="-169.8489" y2="238" gradientTransform="matrix(1 0 0 -1 0 425.6)">
		<stop  offset="0" style="stop-color:#FFFFFF;stop-opacity:0.2"/>
		<stop  offset="0.9158" style="stop-color:#FFFFFF;stop-opacity:0"/>
	</linearGradient>
	<ellipse class="st6" cx="-191.5" cy="187.6" rx="25.3" ry="24.7"/>
	
		<linearGradient id="SVGID_7_" gradientUnits="userSpaceOnUse" x1="-258.2" y1="263.1" x2="-188.7" y2="263.1" gradientTransform="matrix(1 0 0 -1 0 425.6)">
		<stop  offset="0" style="stop-color:#FFFFFF;stop-opacity:0.2"/>
		<stop  offset="0.9158" style="stop-color:#FFFFFF;stop-opacity:0"/>
	</linearGradient>
	<circle class="st7" cx="-220.7" cy="162.5" r="37.5"/>
	<g>
		<g>
			<path class="st8" d="M-201.1,456.6c-0.3-0.6-0.5-1.2-0.8-1.8"/>
			<path class="st9" d="M-203.4,451.1c-4.9-13.3-6.6-28.5-2.6-41.8c4.5-15.2,16.9-28.5,32.4-31.8c9.3-2,19.3-2,28.7-0.8
				c16.4,2.1,33.5,15.5,50,15.7c23.2,0.2,50-9.8,67.3-25.3c10.4-9.3,20.5-23,25.3-36c4.8-12.7,6.7-29,2.3-41.7
				c-4.4-12.8-14.2-26.8-27.5-29.4c-7-1.4-14.6,0.3-20.4,4.5c-7.2,5.2-11.5,14.7-9.5,23.4c2,8.7,10.8,15.6,19.7,14.3
				c2.9-0.4,5.7-1.6,8.2-3.1c9.9-6.1,15.6-18.5,13.9-30c-2.6-17-18.3-28.1-29.7-40.9c-10.7-12-18-26.9-21.2-42.7
				c-1.8-9-1.5-22.4,3.1-30.4c4.2-7.3,11-14.4,18.6-17.9c10.7-4.9,8.9-4.1,20.3-5c4.6-0.4,21.5,2.8,25.8,4.1c3,0.9,7.1,2.3,10,3.6
				c1.6,0.7,4.1,1.4,5.7,2.2c2,1,3.1,1.7,4.9,3.3c2,1.7,3.7,3.3,5.4,5.3c2.1,2.3,3.8,5.5,5.1,8.2c0.9,2,1.2,4.9,0.6,7.2
				c-0.9,3.3-3.9,6.4-7.2,7.3c-5.3,1.5-11.2-1.8-13.9-6.7c-2.7-4.8-2.7-10.8-1.5-16.2c1.6-6.9,5.7-12.9,11.4-17.1
				c1.9-1.4,4.2-2.5,6.3-3.3c7.6-3,15.6-5.6,23.7-5.9"/>
			<path class="st8" d="M53.9,124.1c0.7,0,1.3,0,2,0.1"/>
		</g>
	</g>
	<path class="st10" d="M-13.1,414.8l-0.6-4.4c-0.1-0.5-0.3-1.1-0.7-1.5l-2.9-3.4c-1.5-1.7-0.5-4.4,1.8-4.8l4.4-0.6
		c0.5-0.1,1.1-0.3,1.5-0.7l3.4-2.9c1.7-1.5,4.4-0.5,4.8,1.8l0.6,4.4c0.1,0.5,0.3,1.1,0.7,1.5l2.9,3.4c1.5,1.7,0.5,4.4-1.8,4.8
		l-4.4,0.6c-0.5,0.1-1.1,0.3-1.5,0.7l-3.4,2.9C-10.1,418-12.8,417-13.1,414.8z"/>
	<path class="st10" d="M-196.8,262.6l-0.6-4.4c-0.1-0.5-0.3-1.1-0.7-1.5l-2.9-3.4c-1.5-1.7-0.5-4.4,1.8-4.8l4.4-0.6
		c0.5-0.1,1.1-0.3,1.5-0.7l3.4-2.9c1.7-1.5,4.4-0.5,4.8,1.8l0.6,4.4c0.1,0.5,0.3,1.1,0.7,1.5l2.9,3.4c1.5,1.7,0.5,4.4-1.8,4.8
		l-4.4,0.6c-0.5,0.1-1.1,0.3-1.5,0.7l-3.4,2.9C-193.8,265.9-196.5,264.9-196.8,262.6z"/>
	<path class="st10" d="M-34.6,202.9l-0.6-4.4c-0.1-0.5-0.3-1.1-0.7-1.5l-2.9-3.4c-1.5-1.7-0.5-4.4,1.8-4.8l4.4-0.6
		c0.5-0.1,1.1-0.3,1.5-0.7l3.4-2.9c1.7-1.5,4.4-0.5,4.8,1.8l0.6,4.4c0.1,0.5,0.3,1.1,0.7,1.5l2.9,3.4c1.5,1.7,0.5,4.4-1.8,4.8
		l-4.4,0.6c-0.5,0.1-1.1,0.3-1.5,0.7l-3.4,2.9C-31.6,206.2-34.3,205.2-34.6,202.9z"/>
	<path class="st11" d="M-4.7,335.7l-6.8,1c-0.8,0.1-1.4,0.7-1.6,1.5l-3.6,15.6l-6.5-0.3c-0.6,0-1.1,0.4-1.3,1l-0.5,2.2
		c-0.2,0.7,0.3,1.4,0.9,1.5h0.1l6,0.8l-1.4,5.9c-0.2,0.7,0.3,1.4,0.9,1.5h0.1l2.2,0.3c0.6,0.1,1.2-0.3,1.4-0.8l2-6.2l15.9,2.2
		c0.8,0.1,1.6-0.2,2-0.9l3.4-6c0.4-0.6,0.3-1.4-0.1-2l-11.5-16.7C-3.3,335.9-4,335.6-4.7,335.7z M0.6,354.7l-11.3-0.6l3.5-10.7
		L0.6,354.7z"/>
</g>
<g id="Layer_5">
	<path class="st11" d="M33.3,189.5c-0.2-0.3-0.4-0.6-0.6-0.9c0.2-0.1,0.4-0.3,0.6-0.4c3-2.3,4.6-4.9,4-6.7c-0.6-1.7-3.3-2.6-6.9-2.5
		c-0.4,0-0.7,0-1.1,0.1c0-0.2,0-0.5-0.1-0.7c-0.5-3.6-1.9-6.1-3.9-6.4c-1.9-0.3-4.1,1.5-5.9,4.6c-0.2,0.3-0.3,0.6-0.5,0.9
		c-0.4-0.2-0.8-0.3-1.1-0.4c-3.3-1.2-6.3-1.2-7.5,0.2c-1.3,1.5-0.6,4.5,1.2,7.5c0.2,0.2,0.3,0.5,0.5,0.7c-0.3,0.2-0.6,0.5-0.9,0.7
		c-2.8,2.2-4.2,4.6-3.6,6.3c0.6,1.8,3.4,2.7,7.1,2.6c0.3,0,0.6,0,0.9-0.1c0,0.4,0.1,0.7,0.1,1.1c0.5,3.3,1.9,5.6,3.7,5.9
		c1.9,0.3,4.3-1.6,6.1-4.7c0.1-0.2,0.3-0.5,0.4-0.7c0.2,0.1,0.4,0.1,0.6,0.2c3.5,1.3,6.7,1.4,8-0.1
		C35.8,195.3,35.1,192.5,33.3,189.5L33.3,189.5z M30.4,180.4c3.1-0.1,5.2,0.6,5.6,1.6c0.4,1.1-0.9,3.2-3.5,5.2
		c-0.2,0.1-0.3,0.3-0.5,0.4c-0.8-1.1-1.8-2.1-2.7-3c0.1-1.4,0.2-2.7,0.2-4.1C29.8,180.5,30.1,180.4,30.4,180.4z M16.2,186.1
		c-0.1,0.6-0.2,1.2-0.3,1.8c-0.7-0.7-1.3-1.4-1.9-2.1c0.8-0.5,1.7-1,2.6-1.5C16.4,185,16.3,185.6,16.2,186.1L16.2,186.1z
		 M19.7,179.4c0.8,0.4,1.6,0.9,2.5,1.4c-0.6,0.2-1.2,0.4-1.8,0.6c-0.6,0.2-1.2,0.4-1.7,0.7C19,181.1,19.3,180.2,19.7,179.4
		L19.7,179.4z M18.1,183.6c0.9-0.4,1.8-0.8,2.7-1.1s1.8-0.6,2.7-0.9c0.8,0.5,1.5,1.1,2.2,1.7s1.4,1.2,2.1,1.8
		c-0.1,0.9-0.3,1.8-0.4,2.7c-0.2,0.9-0.4,1.8-0.6,2.7c-0.9,0.4-1.8,0.8-2.7,1.1c-0.9,0.3-1.8,0.6-2.7,0.9c-0.7-0.5-1.5-1.1-2.2-1.7
		s-1.4-1.2-2.1-1.8c0.1-0.9,0.3-1.8,0.4-2.8C17.7,185.4,17.9,184.5,18.1,183.6L18.1,183.6z M24.5,192.9c0.6-0.2,1.2-0.5,1.8-0.7
		c-0.3,0.9-0.6,1.8-1,2.7c-0.9-0.4-1.7-0.9-2.5-1.4C23.4,193.3,24,193.1,24.5,192.9L24.5,192.9z M28.4,189.8
		c0.1-0.6,0.3-1.2,0.4-1.8c0.1-0.6,0.2-1.2,0.3-1.8c0.7,0.7,1.3,1.4,1.8,2.1C30.1,188.9,29.2,189.4,28.4,189.8z M28.1,180.6
		c0,0.9,0,1.9-0.1,2.8c-0.9-0.8-1.8-1.5-2.8-2.2C26.2,181,27.2,180.8,28.1,180.6z M25.2,173.4c1.2,0.2,2.4,2.2,2.8,5.4
		c0,0.2,0,0.4,0.1,0.6c-1.4,0.2-2.8,0.5-4.2,0.9c-1.1-0.8-2.3-1.4-3.6-2.1c0.1-0.3,0.3-0.6,0.5-0.9C22.3,174.7,24,173.2,25.2,173.4
		L25.2,173.4z M13.2,184.8c-0.1-0.2-0.3-0.4-0.4-0.7c-0.7-1.1-1.4-2.5-1.7-3.8c-0.2-0.7-0.1-1.5,0.3-2.1c0.7-0.9,3.2-0.8,6,0.2
		c0.4,0.1,0.7,0.3,1,0.4c-0.6,1.3-1.1,2.6-1.5,3.9C15.7,183.3,14.4,184,13.2,184.8z M14.7,193.8c-1.4,0.1-2.8-0.1-4.1-0.5
		c-0.7-0.2-1.4-0.6-1.7-1.3c-0.4-1,0.8-2.9,3.1-4.8c0.3-0.2,0.6-0.4,0.9-0.6c0.9,1.1,1.8,2.1,2.8,3c-0.1,1.4-0.2,2.8-0.2,4.1
		C15.2,193.8,14.9,193.8,14.7,193.8L14.7,193.8z M16.8,193.6c0-0.9,0-1.9,0.1-2.8c0.4,0.4,0.9,0.8,1.4,1.1c0.5,0.4,1,0.8,1.5,1.1
		C18.8,193.3,17.8,193.5,16.8,193.6z M21.8,199.9c-0.5,0.5-1.3,0.8-2.1,0.8c-1.1-0.2-2.2-2-2.7-4.9c-0.1-0.3-0.1-0.7-0.1-1
		c1.4-0.2,2.8-0.5,4.2-0.9c1.2,0.8,2.4,1.5,3.6,2.1c-0.1,0.2-0.2,0.5-0.4,0.7C23.7,197.9,22.8,199,21.8,199.9L21.8,199.9z M27,195.6
		c-0.2-0.1-0.3-0.1-0.5-0.2c0.6-1.3,1-2.6,1.4-4c1.3-0.6,2.5-1.3,3.7-2c0.2,0.3,0.4,0.5,0.5,0.8c1.5,2.5,2.1,4.9,1.4,5.7
		C32.7,196.8,30,196.7,27,195.6z M20.6,189.2c1.2,1,3,0.8,4-0.4s0.9-2.9-0.3-3.9s-3-0.8-4,0.4C19.3,186.5,19.4,188.3,20.6,189.2
		L20.6,189.2z"/>
	<path class="st11" d="M-211.5,388.2l5.3,24l24.7-6l-5.3-24L-211.5,388.2z M-194,403.7c0.5,2.3-0.7,3.7-2.7,4.2
		c-1.9,0.5-3.1-0.2-3.9-1.2l1.7-1.6c0.5,0.5,0.9,1,1.8,0.8c0.8-0.2,1.2-0.6,0.9-1.7l-1.7-7.7l2.3-0.6L-194,403.7L-194,403.7z
		 M-187.7,405.8c-2.2,0.5-3.8-0.1-4.7-1.3l1.7-1.5c0.7,0.7,1.4,1.1,2.6,0.8c1-0.2,1.5-0.8,1.3-1.5c-0.2-0.8-0.9-0.9-2-1.1l-0.6-0.1
		c-1.8-0.3-3.1-0.9-3.5-2.7c-0.4-1.7,0.7-3.3,2.7-3.8c1.5-0.4,2.6-0.1,3.7,1l-1.6,1.6c-0.5-0.6-1-0.8-1.7-0.6
		c-0.7,0.2-1,0.7-0.9,1.2c0.1,0.7,0.6,0.8,1.7,1l0.6,0.1c2.2,0.3,3.5,0.9,3.9,2.8C-184.1,403.7-185.5,405.2-187.7,405.8
		L-187.7,405.8z"/>
	<path class="st11" d="M-33.8,220.7c7.6,3.1,11.3,11.8,8.1,19.5c-3.2,7.7-11.9,11.5-19.6,8.4s-11.3-11.8-8.1-19.5
		S-41.4,217.6-33.8,220.7z M-44.2,238.2c-0.1,0.8-0.4,1.6-0.9,2.1l-0.2,0.2c-0.1,0.1-0.1,0.1-0.2,0.2c-0.3,0.3-0.6,0.5-1,0.7
		c-1.2,0.6-2.4,0.5-2.8,0s0.4-1.7,1.7-2.3c1.4-0.7,3.2-0.8,3.2-0.8l0,0L-44.2,238.2z M-27.5,230c0.4-2.8-3.4-5.3-7.8-5.4
		c-2.6-0.1-5.7,0.2-8.2,1.2c-3,1.2-4,2.8-4.2,3.6c-0.6,2.8,2.2,6,3.2,7.8l0,0c-0.5,0-4.3,0.4-5.7,1.7c-1.5,1.4-1.1,3-0.6,3.4
		c1.6,1.3,3.9,1.1,5.5,0c0.9-0.7,1.6-1.6,1.9-2.5c0.4-1,1.4-1.4,2.3-1l0.1,0.1c2.3,1.3,2.2,3,1.8,3.6c-0.4,0.6-1,0.8-1.2,0.8
		s-0.3,0.1-0.3,0.1c0,0.1,0.1,0.1,0.2,0.2c0.2,0,1.5,0,2-1.2c0.7-1.5-0.1-3.8-2.6-4.8c-0.6-0.2-1.1-0.4-1.5-0.5
		c-0.4-0.3-0.7-0.6-1.1-0.9c-1-2.1-2.9-4.3-2-6.3c0.4-0.8,1.6-2.9,7.9-3.4c5.2-0.4,8.4,1.5,8.4,3.1c0.1,2.2-4,4.7-8.7,3.4
		c-1.8-0.5-2.4-1.5-2.5-1.9s-0.2-0.4-0.3-0.4c-0.2,0-0.2,0.3-0.2,0.4c0,0.4,0.3,1.3,1.1,2c0.7,0.6,2.6,1.6,5.4,1.6
		c3.1,0,6.4-2.1,6.8-4.8L-27.5,230z"/>
</g>
<g id="Layer_4">
	<g id="a57f6051-90d9-4b0f-831b-7c7398482616">
		<ellipse id="fff0188c-9915-4c0d-8339-9317a77083e8" class="st12" cx="-109.4" cy="224.2" rx="30.2" ry="27.1"/>
		<path id="ac220ed6-7c3f-4d1e-8d82-3295770c496a" class="st13" d="M-81.2,200.8c-4.5-6.6-11.5-11.5-19.8-13.6l-3.7,2.4v-3.2
			c-2-0.3-4-0.4-6-0.3l-3.2,2.6v-2.4c-9.6,1.1-18.2,5.7-23.8,12.7c-6.9,9-8.1,21.5-1.3,30.6c1.9-5.2,4.1-10,6-15.2
			c1.5,0.2,3,0.2,4.4,0l2.3-4.8l0.7,4.6c7.1-0.5,17.6-1.8,24.2-2.9l-0.7-3.5l3.9,2.9c2.1-0.4,3.2-0.8,3.2-1.1
			c5,7.2,11.1,11.8,16.1,19C-77.1,218.6-74.9,210.1-81.2,200.8z"/>
		<path class="st11" d="M-44.6,294c-1.1-5.6-2.1-11.3-5-16.4c-1.9-3.3-4.9-6.5-9-7.1c-0.8-0.1-1.6-0.2-2.3-0.5
			c-1.2-0.5-17.2-8.8-19.8-10.2c-2.2-1.2-5.7-3.5-7.4-3.5c-1.8,0-8.5,1.4-34.7-0.5c0,0-7.2,2.6-12.8,5.6c-0.1,0-27.3,13.1-28.3,13.1
			c-1.9-0.1-3.7,1.1-4.8,2.4c-1.1,1.4-1.6,3.1-2.2,4.8c6,12,11.4,23.9,17.4,35.8c0.3,0.5,0.4,1,0.4,1.5c-0.1,0.5-0.4,1.1-0.7,1.5
			c-2.9,4.2-2.8,9.5-2.5,14.5c0.3,4.9,0.7,10.2-1.8,14.6c-0.7,1.2-1.5,2.3-2.2,3.5c-1.5,2.7-2,11.6-1.1,14.5l108.9,2.8
			C-55,364.5-44.6,294-44.6,294z"/>
		<path id="bb46eb08-8e3e-4ac5-913b-26d221d967b9" class="st12" d="M-180.4,318c-0.2,1.4-0.2,2.9,0,4.3l1.6,20.1
			c0.1,1.9,0.3,3.8,0.5,5.7c0.4,3.7,0.9,7.3,1.6,11c0,1.1,1,1.9,2.2,1.9c6.8,1.3,14,1.3,21,0.9c10.7-0.5,38.1-1.6,39.7-3.5
			c1.7-1.9,0.7-5.1-1.5-6.7s-38.3-5.4-38.3-5.4c0.4-2.5,1.4-4.9,2.4-7.3c1.8-4.3,3.5-8.6,3.6-13.1s-1.9-9.3-6-11.9
			c-3.4-2.1-7.8-2.5-11.9-2.4c-3,0.1-8.2-0.6-11,0.5C-178.7,312.8-180,316.1-180.4,318z"/>
		<path id="efe93a1e-ccdd-49fd-af5f-e26394aa0937" class="st11" d="M-171.3,282.1c-0.5,0.5-0.9,1.1-1.2,1.7
			c-4.4,8.9-7,18.4-7.6,28.2c0,0.5-0.1,0.9-0.4,1.3c-0.2,0.3-0.5,0.5-0.8,0.8c-1.1,1.1-0.9,2.8,0.4,3.8l0,0l0.1,0.1
			c0.9-1.5,3-2,5-2.1c9.1-0.6,18,3.2,27.2,2.9c-0.7-2-1.6-3.9-2.1-6c-2.3-9,3.5-18.8-0.1-27.6c-0.7-1.7-1.9-3.5-3.8-4.2
			c-0.8-0.3-1.6-0.5-2.4-0.6c-2.3-0.4-6.9-2-9.2-1.3c-0.8,0.3-1.1,0.9-1.8,1.3C-169,281.1-170.4,281.4-171.3,282.1z"/>
		<path id="a38c3c09-000b-42b7-8619-0229d8aff5e9" class="st12" d="M-44.5,312c-2.8-1.1-7.9-0.4-11-0.5c-4.1-0.1-8.5,0.3-11.9,2.4
			c-4.1,2.6-6,7.4-6,11.9c0,4.6,1.7,8.9,3.6,13.1c1,2.4,2.1,4.8,2.4,7.3c0,0-36.1,3.8-38.3,5.4c-2.2,1.6-3.2,4.8-1.5,6.7
			c1.7,1.9,53.9,3.9,60.7,2.6c1.2,0,2.2-0.8,2.2-1.9c0.7-3.6,1.3-7.3,1.6-11c0.2-1.9,0.4-3.8,0.5-5.7l1.6-20.1
			c0.2-1.4,0.1-2.9,0-4.3C-41.1,316.1-42.3,312.8-44.5,312z"/>
		<path id="bd3879bf-5d05-49be-b690-c4d97e29a2ab" class="st11" d="M-53,280.5c-0.7-0.4-1-1.1-1.8-1.3c-2.2-0.6-6.8,1-9.2,1.3
			c-0.8,0.1-1.6,0.3-2.4,0.6c-1.9,0.8-3.1,2.5-3.8,4.2c-3.6,8.7,2.2,18.5-0.1,27.6c-0.5,2-1.4,4-2.1,6c9.2,0.3,18.1-3.5,27.2-2.9
			c1.9,0.1,4,0.6,5,2.1l0.1-0.1c1.3-1,1.4-2.7,0.4-3.8l0,0c-0.3-0.3-0.6-0.5-0.8-0.8c-0.3-0.4-0.4-0.9-0.4-1.3
			c-0.7-9.7-3.2-19.3-7.6-28.2c-0.3-0.6-0.7-1.2-1.2-1.7C-50.6,281.4-52,281.1-53,280.5z"/>
		<ellipse class="st12" cx="-118.4" cy="354.6" rx="8.1" ry="7.3"/>
		<ellipse class="st12" cx="-100.3" cy="354.6" rx="8.1" ry="7.3"/>
		<path class="st14" d="M-50.1,371.1h-111.8c-2.7,0-4.9-2-4.9-4.4v-61.1c0-2.4,2.2-4.4,4.9-4.4h111.8c2.7,0,4.9,2,4.9,4.4v61
			C-45.2,369.2-47.4,371.1-50.1,371.1z"/>
		<path class="st11" d="M-137.2,234.3L-137.2,234.3c-4.8,0-8.8-3.8-8.8-8.6l0,0v-4.3c0-4.7,3.9-8.6,8.8-8.6l0,0V234.3z"/>
		<path class="st15" d="M-81.2,213L-81.2,213c4.8,0,8.8,3.8,8.8,8.6v4.3c0,4.7-3.9,8.6-8.8,8.6l0,0V213z"/>
		<path class="st11" d="M-76.6,222.2H-78c0-17.2-14.4-31.1-32-31.1s-32,14-32,31.1h-1.4c0-17.9,15-32.5,33.4-32.5
			S-76.6,204.3-76.6,222.2z"/>
		<path class="st15" d="M-106.6,345.2l-2.3-0.6c-0.2-0.1-0.4-0.3-0.3-0.5l5.1-15.7c0.1-0.2,0.3-0.3,0.6-0.3l2.3,0.6
			c0.2,0.1,0.4,0.3,0.3,0.5l-5.1,15.7C-106.1,345.1-106.3,345.3-106.6,345.2z M-110.8,341.4l1.6-1.6c0.2-0.2,0.2-0.4,0-0.6l-3.4-2.7
			l3.4-2.7c0.2-0.2,0.2-0.4,0-0.6l-1.6-1.6c-0.2-0.2-0.5-0.2-0.6,0l-5.4,4.5c-0.2,0.2-0.2,0.4,0,0.6l5.4,4.5
			C-111.3,341.6-111,341.6-110.8,341.4L-110.8,341.4z M-98.6,341.5l5.4-4.5c0.2-0.2,0.2-0.4,0-0.6l-5.4-4.5c-0.2-0.2-0.5-0.1-0.6,0
			l-1.6,1.6c-0.2,0.2-0.2,0.4,0,0.6l3.4,2.7l-3.4,2.7c-0.2,0.2-0.2,0.4,0,0.6l1.6,1.6C-99.1,341.6-98.8,341.6-98.6,341.5
			L-98.6,341.5z"/>
		<text transform="matrix(1 0 0 1 -113.0417 284.05)" class="st16 st17 st18">DD</text>
	</g>
</g>
<path class="st11" d="M-44.8,128.7l-23.3,3.5c-1.8,0.3-3,1.9-2.7,3.7l3.5,23.3c0.3,1.8,1.9,3,3.7,2.7l23.3-3.5
	c1.8-0.3,3-1.9,2.7-3.7l-3.5-23.3C-41.4,129.7-43,128.5-44.8,128.7z M-49.1,155.4c-0.5,0.2-0.8-0.1-0.8-0.4
	c-0.1-0.4-0.3-2.2-0.5-3.7c-0.2-1-0.6-1.6-1.1-1.9c2.4-0.6,4.9-1.4,4.3-5.6c-0.2-1.2-0.7-1.7-1.5-2.4c0.1-0.3,0.3-1.5-0.6-3
	c-1-0.1-2.9,1.6-2.9,1.6c-0.9-0.1-1.9-0.1-2.8,0s-1.9,0.4-2.7,0.8c0,0-2.3-1.2-3.2-0.7c-0.4,1.6,0.2,2.7,0.3,3
	c-0.6,0.9-0.8,1.5-0.6,2.7c0.6,4.2,3.2,4.2,5.6,4.1c-0.3,0.3-0.5,0.9-0.5,1.6c-0.6,0.4-2.1,1.1-3.3-0.4c-0.8-1-1.9-0.9-1.9-0.9
	c-1.1,0.1,0,0.7,0,0.7c0.8,0.2,1.5,1.4,1.5,1.4c0.9,1.9,3.9,0.8,3.9,0.8c0.1,0.9,0.4,2.4,0.4,2.7s-0.1,0.7-0.7,0.6
	c-4.6-0.8-8.3-4.5-9-9.4c-0.9-6.1,3.1-11.4,9.1-12.3c6.1-0.9,11.7,3,12.6,9.1C-42.6,148.6-45,153.3-49.1,155.4z M-56.2,152.3
	c-0.1,0-0.2,0-0.3-0.1c0-0.1,0-0.2,0.2-0.2c0.1,0,0.3,0,0.3,0.1C-56,152.1-56.1,152.2-56.2,152.3L-56.2,152.3z M-56.9,152.3
	c0,0.1-0.1,0.2-0.2,0.2s-0.3,0-0.3-0.1s0.1-0.2,0.2-0.2C-57,152.2-56.9,152.2-56.9,152.3z M-57.8,152.4c0,0.1-0.1,0.1-0.3,0.1
	c-0.1,0-0.2-0.1-0.2-0.2c0-0.1,0.1-0.1,0.3-0.1C-57.9,152.2-57.8,152.3-57.8,152.4L-57.8,152.4z M-58.7,152.1c0,0.1-0.2,0.1-0.3,0
	c-0.1-0.1-0.2-0.2-0.1-0.3c0-0.1,0.2-0.1,0.3,0C-58.7,152-58.6,152.1-58.7,152.1z M-59.4,151.6c-0.1,0-0.2,0-0.3-0.1
	c-0.1-0.1-0.1-0.2,0-0.3s0.2,0,0.3,0C-59.3,151.4-59.3,151.6-59.4,151.6z M-59.9,151.1c-0.1,0.1-0.2,0.1-0.2,0
	c-0.1-0.1-0.1-0.2-0.1-0.2c0.1-0.1,0.2-0.1,0.2,0C-59.9,150.9-59.8,151-59.9,151.1z M-60.4,150.6c0,0.1-0.1,0.1-0.2,0.1
	s-0.1-0.1-0.1-0.2c0,0,0.1-0.1,0.2-0.1C-60.4,150.5-60.4,150.6-60.4,150.6z"/>
</svg>
